<svg id="Capa_1" enable-background="new 0 0 512 512" height="512" viewBox="0 0 512 512" width="512" xmlns="http://www.w3.org/2000/svg"><g><g fill="#99e6fc"><path d="m411.186 314.512h15v32.946h-15z"/><path d="m411.186 412.11h15v32.946h-15z"/></g><g fill="#99e6fc"><path d="m418.686 135.959c-4.143 0-7.5 3.358-7.5 7.5v12c0 4.142 3.357 7.5 7.5 7.5s7.5-3.358 7.5-7.5v-12c0-4.142-3.358-7.5-7.5-7.5z"/><path d="m388.358 97.663h-14.867c.209 2.69.326 5.394.326 8.085 0 2.301-.084 4.612-.237 6.915h14.778c4.143 0 7.5-3.358 7.5-7.5s-3.357-7.5-7.5-7.5z"/><path d="m418.527 125.967c.345 0 .693-.024 1.044-.073 4.103-.571 6.965-4.359 6.395-8.462-.833-5.986-3.939-11.319-8.746-15.017-3.285-2.526-7.993-1.911-10.518 1.372s-1.912 7.992 1.371 10.518c1.67 1.284 2.748 3.129 3.035 5.195.523 3.752 3.736 6.467 7.419 6.467z"/><path d="m418.686 209.959c-4.143 0-7.5 3.358-7.5 7.5v12c0 4.142 3.357 7.5 7.5 7.5s7.5-3.358 7.5-7.5v-12c0-4.142-3.358-7.5-7.5-7.5z"/><path d="m418.686 172.959c-4.143 0-7.5 3.358-7.5 7.5v12c0 4.142 3.357 7.5 7.5 7.5s7.5-3.358 7.5-7.5v-12c0-4.142-3.358-7.5-7.5-7.5z"/><path d="m184.32 469.883h-12c-4.142 0-7.5 3.358-7.5 7.5s3.358 7.5 7.5 7.5h12c4.142 0 7.5-3.358 7.5-7.5s-3.358-7.5-7.5-7.5z"/><path d="m147.32 469.883h-.478c-2.006 0-3.921-.749-5.393-2.107-3.042-2.81-7.788-2.621-10.598.423-2.81 3.043-2.62 7.788.423 10.598 4.251 3.924 9.78 6.086 15.568 6.086h.478c4.142 0 7.5-3.358 7.5-7.5s-3.358-7.5-7.5-7.5z"/><path d="m138.889 449.691v-12c0-4.142-3.358-7.5-7.5-7.5s-7.5 3.358-7.5 7.5v12c0 4.142 3.358 7.5 7.5 7.5s7.5-3.358 7.5-7.5z"/><path d="m131.389 420.191c4.142 0 7.5-3.358 7.5-7.5v-12c0-4.142-3.358-7.5-7.5-7.5s-7.5 3.358-7.5 7.5v12c0 4.142 3.358 7.5 7.5 7.5z"/><path d="m258.32 469.883h-12c-4.142 0-7.5 3.358-7.5 7.5s3.358 7.5 7.5 7.5h12c4.143 0 7.5-3.358 7.5-7.5s-3.357-7.5-7.5-7.5z"/><path d="m326.372 469.883h-6.052c-4.143 0-7.5 3.358-7.5 7.5s3.357 7.5 7.5 7.5h6.052z"/><path d="m295.32 469.883h-12c-4.143 0-7.5 3.358-7.5 7.5s3.357 7.5 7.5 7.5h12c4.143 0 7.5-3.358 7.5-7.5s-3.357-7.5-7.5-7.5z"/><path d="m221.32 469.883h-12c-4.142 0-7.5 3.358-7.5 7.5s3.358 7.5 7.5 7.5h12c4.142 0 7.5-3.358 7.5-7.5s-3.358-7.5-7.5-7.5z"/></g><g><path d="m166.337 377.392c0-32.811 26.693-59.503 59.503-59.503.067 0 .132.005.198.005v-143.955l-12.895 12.895c-.938.938-2.183 1.454-3.508 1.454-1.096 0-2.129-.354-2.987-1.026-6.625-5.187-12.615-11.176-17.802-17.802-1.519-1.94-1.334-4.732.428-6.495l15.017-15.017c2.154-2.153 2.637-5.436 1.202-8.168-2.049-3.901-3.752-8.017-5.063-12.231-.917-2.945-3.578-4.923-6.624-4.923h-21.246c-2.492 0-4.596-1.843-4.894-4.287-.506-4.159-.763-8.395-.763-12.591 0-.195.008-.39.009-.585h-116.766c-2.732 0-5.352 1.085-7.284 3.017l-39.845 39.845c-1.932 1.932-3.017 4.552-3.017 7.284v222.66c0 5.69 4.612 10.302 10.302 10.302h157.05c-.656-3.53-1.015-7.162-1.015-10.879z" fill="#fef1da"/><g><path d="m42.753 377.969v-222.66c0-2.732 1.085-5.353 3.017-7.285l39.845-39.845c1.932-1.932 4.552-3.017 7.284-3.017h-42.753c-2.732 0-5.352 1.085-7.284 3.017l-39.845 39.846c-1.932 1.932-3.017 4.552-3.017 7.284v222.66c0 5.69 4.612 10.302 10.302 10.302h42.753c-5.69 0-10.302-4.612-10.302-10.302z" fill="#fae2c0"/></g><g><g><path d="m166.598 184.945h-107.157c-4.142 0-7.5-3.358-7.5-7.5s3.358-7.5 7.5-7.5h107.157c4.142 0 7.5 3.358 7.5 7.5s-3.358 7.5-7.5 7.5z" fill="#d8aa5e"/></g><g><path d="m166.598 222.378h-107.157c-4.142 0-7.5-3.358-7.5-7.5s3.358-7.5 7.5-7.5h107.157c4.142 0 7.5 3.358 7.5 7.5s-3.358 7.5-7.5 7.5z" fill="#d8aa5e"/></g><g><path d="m166.598 259.645h-107.157c-4.142 0-7.5-3.358-7.5-7.5s3.358-7.5 7.5-7.5h107.157c4.142 0 7.5 3.358 7.5 7.5s-3.358 7.5-7.5 7.5z" fill="#d8aa5e"/></g><g><path d="m166.598 297.246h-107.157c-4.142 0-7.5-3.358-7.5-7.5s3.358-7.5 7.5-7.5h107.157c4.142 0 7.5 3.358 7.5 7.5s-3.358 7.5-7.5 7.5z" fill="#d8aa5e"/></g><g><path d="m107.477 334.68h-48.036c-4.142 0-7.5-3.358-7.5-7.5s3.358-7.5 7.5-7.5h48.036c4.142 0 7.5 3.358 7.5 7.5s-3.358 7.5-7.5 7.5z" fill="#d8aa5e"/></g></g></g><g><g><circle cx="225.84" cy="377.392" fill="#05e39c" r="60.503"/></g><g><path d="m199.895 377.392c0-27.409 18.231-50.548 43.224-57.985-5.477-1.63-11.273-2.518-17.279-2.518-33.415 0-60.503 27.088-60.503 60.503s27.088 60.503 60.503 60.503c6.006 0 11.802-.888 17.279-2.518-24.993-7.437-43.224-30.576-43.224-57.985z" fill="#0ed290"/></g><g><path d="m221.997 402c-1.919 0-3.839-.732-5.303-2.197l-23.502-23.502c-2.929-2.929-2.929-7.678 0-10.606 2.929-2.929 7.678-2.929 10.606 0l18.199 18.199 25.886-25.886c2.929-2.929 7.677-2.93 10.606 0 2.929 2.929 2.929 7.678 0 10.606l-31.189 31.19c-1.465 1.464-3.384 2.196-5.303 2.196z" fill="#fff"/></g></g><g><g><path d="m337.136 64.256 15.017-15.017c2.108-2.108 2.345-5.471.508-7.818-5.24-6.694-11.278-12.733-17.973-17.973-2.347-1.837-5.71-1.6-7.818.508l-15.017 15.017c-1.85 1.85-4.679 2.24-6.996 1.024-3.938-2.068-8.084-3.791-12.399-5.133-2.497-.776-4.22-3.054-4.22-5.668v-21.248c0-2.98-2.207-5.526-5.165-5.886-4.167-.507-8.409-.77-12.712-.77s-8.546.263-12.712.77c-2.958.36-5.166 2.906-5.166 5.886v21.247c0 2.615-1.723 4.892-4.22 5.668-4.315 1.342-8.462 3.065-12.399 5.133-2.317 1.217-5.146.827-6.996-1.024l-15.017-15.017c-2.108-2.108-5.471-2.345-7.818-.508-6.694 5.24-12.733 11.278-17.973 17.973-1.837 2.347-1.6 5.71.508 7.818l15.017 15.017c1.85 1.85 2.24 4.679 1.024 6.996-2.068 3.938-3.791 8.084-5.133 12.399-.776 2.497-3.054 4.22-5.668 4.22h-21.248c-2.98 0-5.526 2.207-5.886 5.165-.507 4.167-.77 8.409-.77 12.712 0 4.304.263 8.546.77 12.712.36 2.958 2.906 5.165 5.886 5.165h21.247c2.615 0 4.892 1.723 5.668 4.22 1.342 4.315 3.065 8.462 5.133 12.399 1.217 2.317.827 5.146-1.024 6.996l-15.017 15.017c-2.108 2.108-2.345 5.471-.508 7.818 5.24 6.694 11.278 12.733 17.973 17.973 2.347 1.837 5.71 1.6 7.818-.508l15.017-15.017c1.85-1.85 4.679-2.24 6.996-1.024 3.938 2.068 8.084 3.791 12.399 5.133 2.497.776 4.22 3.054 4.22 5.668v21.247c0 2.98 2.207 5.526 5.166 5.886 4.167.507 8.409.77 12.712.77s8.546-.263 12.712-.77c2.958-.36 5.165-2.906 5.165-5.886v-21.247c0-2.615 1.723-4.892 4.22-5.668 4.315-1.342 8.462-3.065 12.399-5.133 2.317-1.217 5.146-.827 6.996 1.024l15.017 15.017c2.108 2.108 5.471 2.345 7.818.508 6.694-5.24 12.733-11.278 17.973-17.973 1.837-2.347 1.6-5.71-.508-7.818l-15.017-15.017c-1.85-1.85-2.24-4.679-1.024-6.996 2.068-3.938 3.791-8.084 5.133-12.399.776-2.497 3.054-4.22 5.668-4.22h21.247c2.98 0 5.526-2.207 5.886-5.165.507-4.167.77-8.409.77-12.712 0-4.304-.263-8.546-.77-12.712-.36-2.958-2.906-5.165-5.886-5.165h-21.247c-2.615 0-4.892-1.723-5.668-4.22-1.342-4.315-3.065-8.462-5.133-12.399-1.215-2.316-.825-5.145 1.025-6.995z" fill="#7ca1b1"/></g><g><path d="m253.428 157.368c-21.692-7.134-37.403-27.571-37.403-51.62s15.711-44.486 37.403-51.62c9.212-10.762 21.249-19.035 34.964-23.67-.091-.41-.154-.829-.154-1.263v-21.247c0-2.98-2.207-5.526-5.165-5.886-4.167-.507-8.409-.77-12.712-.77s-8.546.263-12.712.77c-2.958.36-5.166 2.906-5.166 5.886v21.247c0 2.615-1.723 4.892-4.22 5.668-4.315 1.342-8.462 3.065-12.399 5.133-2.317 1.217-5.146.827-6.996-1.024l-15.017-15.017c-2.108-2.108-5.471-2.345-7.818-.508-6.694 5.24-12.733 11.278-17.973 17.973-1.837 2.347-1.6 5.71.508 7.818l15.017 15.017c1.85 1.85 2.24 4.679 1.024 6.996-2.068 3.938-3.791 8.084-5.133 12.399-.776 2.497-3.054 4.22-5.668 4.22h-21.248c-2.98 0-5.526 2.207-5.886 5.165-.507 4.167-.77 8.409-.77 12.712s.263 8.546.77 12.712c.36 2.958 2.906 5.165 5.886 5.165h21.247c2.615 0 4.892 1.723 5.668 4.22 1.342 4.315 3.065 8.462 5.133 12.399 1.217 2.317.827 5.146-1.024 6.996l-15.017 15.017c-2.108 2.108-2.345 5.471-.508 7.818 5.24 6.694 11.278 12.733 17.973 17.973 2.347 1.837 5.71 1.6 7.818-.508l15.017-15.017c1.85-1.85 4.679-2.24 6.996-1.024 3.938 2.068 8.084 3.791 12.399 5.133 2.497.776 4.22 3.054 4.22 5.668v21.247c0 2.98 2.207 5.526 5.166 5.886 4.167.507 8.409.77 12.712.77s8.546-.263 12.712-.77c2.958-.36 5.165-2.906 5.165-5.886v-21.247c0-.434.064-.853.154-1.263-13.713-4.633-25.751-12.906-34.963-23.668z" fill="#678d98"/></g><g><circle cx="270.36" cy="105.748" fill="#3e5959" r="46.835"/></g><g><path d="m249.819 105.748c0-21.3 14.224-39.267 33.688-44.951-4.172-1.218-8.581-1.884-13.147-1.884-25.867 0-46.835 20.969-46.835 46.835s20.969 46.835 46.835 46.835c4.566 0 8.975-.666 13.147-1.884-19.464-5.683-33.688-23.651-33.688-44.951z" fill="#384949"/></g><g><path d="m270.36 160.083c-29.96 0-54.335-24.375-54.335-54.335s24.375-54.335 54.335-54.335 54.335 24.375 54.335 54.335-24.375 54.335-54.335 54.335zm0-93.67c-21.689 0-39.335 17.646-39.335 39.335s17.646 39.335 39.335 39.335 39.335-17.646 39.335-39.335-17.645-39.335-39.335-39.335z" fill="#8ebac5"/></g><g><circle cx="270.36" cy="105.748" fill="#fff" r="16.261"/></g></g><g><path d="m506.849 315.511h-176.326c-2.845 0-5.151-2.306-5.151-5.151v-56.35c0-2.845 2.306-5.151 5.151-5.151h176.326c2.845 0 5.151 2.306 5.151 5.151v56.351c0 2.844-2.306 5.15-5.151 5.15z" fill="#01d0fb"/></g><g><path d="m360.048 310.361v-56.351c0-2.845 2.306-5.151 5.151-5.151h-34.676c-2.845 0-5.151 2.306-5.151 5.151v56.351c0 2.845 2.306 5.151 5.151 5.151h34.676c-2.845 0-5.151-2.307-5.151-5.151z" fill="#01c0fa"/></g><g><path d="m475.341 289.685h-113.31c-4.143 0-7.5-3.358-7.5-7.5s3.357-7.5 7.5-7.5h113.31c4.143 0 7.5 3.358 7.5 7.5s-3.358 7.5-7.5 7.5z" fill="#99e6fc"/></g><g><path d="m506.849 413.11h-176.326c-2.845 0-5.151-2.306-5.151-5.151v-56.351c0-2.845 2.306-5.151 5.151-5.151h176.326c2.845 0 5.151 2.306 5.151 5.151v56.351c0 2.845-2.306 5.151-5.151 5.151z" fill="#fed402"/></g><g><path d="m360.048 407.959v-56.351c0-2.845 2.306-5.151 5.151-5.151h-34.676c-2.845 0-5.151 2.306-5.151 5.151v56.351c0 2.845 2.306 5.151 5.151 5.151h34.676c-2.845 0-5.151-2.306-5.151-5.151z" fill="#fac600"/></g><g><path d="m475.341 387.284h-113.31c-4.143 0-7.5-3.358-7.5-7.5s3.357-7.5 7.5-7.5h113.31c4.143 0 7.5 3.358 7.5 7.5s-3.358 7.5-7.5 7.5z" fill="#c99c56"/></g><g><path d="m506.849 510.709h-176.326c-2.845 0-5.151-2.306-5.151-5.151v-56.351c0-2.845 2.306-5.151 5.151-5.151h176.326c2.845 0 5.151 2.306 5.151 5.151v56.351c0 2.845-2.306 5.151-5.151 5.151z" fill="#fd5426"/></g><g><path d="m360.048 505.558v-56.351c0-2.845 2.306-5.151 5.151-5.151h-34.676c-2.845 0-5.151 2.306-5.151 5.151v56.351c0 2.845 2.306 5.151 5.151 5.151h34.676c-2.845 0-5.151-2.306-5.151-5.151z" fill="#ef4424"/></g><g><path d="m475.341 484.883h-113.31c-4.143 0-7.5-3.358-7.5-7.5s3.357-7.5 7.5-7.5h113.31c4.143 0 7.5 3.358 7.5 7.5s-3.358 7.5-7.5 7.5z" fill="#d73d24"/></g></g></svg>