<svg id="Layer_1" enable-background="new 0 0 130 130" height="512" viewBox="0 0 130 130" width="512" xmlns="http://www.w3.org/2000/svg"><g><g fill="#e29c40"><path d="m107.21901 110.06347-12.09998 6.99011c-3.30005-1.92004-4.95001-4.44006-4.96002-6.95007l-.02002-2.35999c0 .16003.02002.31995.04004.4801-.23004-2.70007 1.41998-5.45007 4.98999-7.51001l12.02997 7z"/><path d="m61.60903 106.53356.02997 1.94006c0 .33984-.20996.65991-.64001.91992l-21.38995 12.35999c-.85004.47009-2.23999.4801-3.09003 0l-34.88-20.27991c-.42999-.25-.64001-.57007-.64001-.89014v-2.11987c0-.33008.21002-.66003.64001-.91003l21.23999-12.26001c.85004-.48999 2.23004-.48999 3.08002 0l35.01001 20.34998c.42998.25.64.57007.64.89001z"/><path d="m128.98903 77.80358-73.46002-42.69007-11.5 6.64001c-3.27002-.2699-7.29999.28003-11.37 1.52002-4.29999-1.79993-10.26001-1.58997-14.16003.66003-2.18994 1.26001-3.26996 2.8999-3.25995 4.55005v1.88989c.00995.97998.38995 1.94995 1.15997 2.84009-1.26001 1.66992-1.90003 3.28992-1.83997 4.70996-.01001-.05005-.01001-.11011-.01001-.17004v1.02002l-13.55004 7.81996.01001 2.02002 73.46002 42.69006 54.52997-31.4801zm-100.94-28.31995c-1.28003.73999-3.10004 1-4.76001.75-.94-.12012-1.81-.38013-2.51001-.79004l-.28003-.19006c-.40997-.2699-.70996-.58997-.90997-.92004.23999-.41992.62-.80994 1.20001-1.13989 1.91998-1.11011 4.94-1.14001 6.90997-.17004l.31.17004c.58002.33997 1 .73999 1.23999 1.17993-.25.40002-.63995.79003-1.19995 1.1101z"/><path d="m128.61903 107.6936.01996 2.32996c0 .10999 0 .21997-.01001.32996l-.52997-.04004.02002 2.12012c-.73004 1.70996-2.24005 3.30005-4.51001 4.60999-6.69 3.85999-17.48999 3.85999-24.14001 0l-.02002-2.35999 10.16003-5.86011-.17004-.01001-9.88995-5.75-.02002-2.35986c6.67999-3.86011 17.47998-3.86011 24.13.01001 3.29999 1.91992 4.95001 4.42993 4.96002 6.94995z"/><path d="m83.64015 43.52709-.01282 3.48279 6.42383 3.70886 3.01825-1.75415-.01831 3.48608 6.42383 3.70874 2.99548 1.49903-.00207.22924 6.42383 3.70874 3.05188-1.77343-.05194 3.50561 6.42376 3.70875 6.38202-3.70887.08502-5.7345-6.42382-3.70874-3.06452 1.78089.06464-7.04651-6.42389-3.70874-3.03168 1.76184.03827-10.39258-6.42377-3.70874-3.03827 1.76562.03833-10.40014-6.42382-3.70886-3.02942 1.76049.02948-10.39489-6.41724-3.70496-6.38208 3.70874-.08496 29.97546 6.41724 3.70496z"/></g><g><g><path d="m1.00102 66.5962 73.46263 42.69181 54.52858-31.48209-73.46262-42.69182z" fill="#f9bb4a"/></g><g><g enable-background="new"><g><path d="m19.28346 47.36054.03358 1.91222c0-.77144.46966-1.5093 1.47593-2.0801 1.91201-1.10638 4.93102-1.13996 6.90998-.16706l.30198.16706c.70428.40292 1.17394.90575 1.3752 1.44297.10073.23422.16768.46925.16768.70429v-1.91222c0-.23503-.06695-.46925-.16768-.70428-.23483-.5364-.67091-1.04005-1.3752-1.44215l-.30198-.16788c-1.97896-.9729-4.99797-.93932-6.90998.16788-1.00627.56997-1.50951 1.30783-1.50951 2.07927z" fill="#416e84"/></g><g><path d="m15.23728 48.46431.00545 1.91406c.00364 1.29062.68476 2.58156 2.0426 3.68769l-.00539-1.91403c-1.35788-1.10615-2.03901-2.39708-2.04266-3.68772z" fill="#37617b"/></g><g><path d="m16.90679 61.48731.00543 1.91405 31.91054-18.42356-.00543-1.91404z" fill="#f9bb4a"/></g><g><path d="m14.54456 57.75654.00545 1.91405c.00424 1.50507.76672 2.80357 2.36221 3.73077l-.00541-1.91401c-1.5955-.92723-2.35798-2.22574-2.36225-3.73081z" fill="#37617b"/></g><g><path d="m18.49996 43.92926c3.8978-2.25039 9.85464-2.46064 14.15696-.65517 6.43629-1.96609 12.75616-2.18867 16.16041-.21033l-31.91054 18.42355c-3.38291-1.96593-3.0209-5.60114.3731-9.33529-3.08152-2.5103-2.67773-5.97237 1.22007-8.22276zm4.78896 6.30609c1.66343.24724 3.47961-.01235 4.76454-.7542 1.28505-.74192 1.76043-1.80537 1.31774-2.7574-.21029-.54392-.65578-1.05098-1.35817-1.45917l-.3193-.16074c-1.97958-.97673-4.98988-.93976-6.896.16074-1.90601 1.10043-1.97968 2.84399-.29993 3.99383l.27641.18551c.70238.40818 1.57626.66791 2.51471.79143z" fill="#4c7891"/></g></g></g><path d="m8.17072 66.59486 66.31832 38.54151 47.33867-27.32947-66.32372-38.5415z" fill="#fff"/><g><path d="m1.00102 66.5962.00878 2.01531 73.46263 42.69182-.00878-2.01532z" fill="#e29c40"/></g><g><path d="m74.46365 109.28801.00878 2.01532 54.52859-31.4821-.00879-2.01531z" fill="#efac41"/></g><path d="m38.96995 51.40702 16.9286 9.83783 15.16285-8.75428-16.9286-9.83782z" fill="#f9607f"/><path d="m17.00892 68.61364 1.29911.75496 23.90091-13.7992-1.29911-.75496z" fill="#cad0dd"/><path d="m52.07455 71.25381 1.35001.78454 25.72078-14.8499-1.35001-.78454z" fill="#cad0dd"/><path d="m55.32367 73.14198 1.35269.78611 25.72078-14.8499-1.35269-.7861z" fill="#cad0dd"/><path d="m89.01279 67.3986 14.02179 8.14856 3.8635-2.23059-14.02179-8.14857z" fill="#9ad898"/><path d="m75.42772 70.26703 18.3161 10.64416 3.8635-2.2306-18.3161-10.64415z" fill="#748bfd"/><path d="m38.86279 81.67281c3.29002 1.9087 8.65738 1.9087 11.96851 0 3.32169-1.91913 3.33224-5.01929.04222-6.93855-3.30058-1.9087-8.65744-1.9087-11.96858 0-3.32163 1.91927-3.34274 5.01942-.04215 6.93855z" fill="#748bfd"/><path d="m74.72289 80.62377 9.72748 5.65299 3.8662-2.23215-9.72747-5.65299z" fill="#f9607f"/><path d="m56.8435 80.99664 18.3161 10.64415 3.86352-2.2306-18.3161-10.64415z" fill="#bac1ce"/><path d="m51.84437 88.85779 14.02179 8.14857 3.86619-2.23214-14.02179-8.14858z" fill="#4c7891"/><g fill="#cad0dd"><path d="m68.71883 98.66415 1.3527.78611 41.03191-23.68979-1.35269-.7861z"/><path d="m13.10088 66.34254 1.29911.75496 23.90091-13.79921-1.29911-.75495z"/><path d="m48.82276 69.36407 1.35269.7861 25.72078-14.8499-1.35269-.7861z"/><path d="m20.91431 70.8832 1.2991.75496 23.90091-13.7992-1.2991-.75496z"/><path d="m24.82234 73.1543 1.29911.75496 23.90091-13.7992-1.2991-.75495z"/><path d="m58.57547 75.03172 1.35.78454 25.72078-14.8499-1.35-.78454z"/><path d="m28.72769 75.42384 1.3018.75653 23.90091-13.79921-1.3018-.75651z"/><path d="m72.92689 101.10961 1.35.78453 41.03192-23.68978-1.35001-.78454z"/></g><g><g><g><path d="m1.00312 98.4506v2.13418c0 .31968.20616.63936.63923.8868l34.87973 20.2803c.84545.48455 2.23738.47424 3.08277 0l21.39389-12.36205c.43308-.25775.6393-.57743.6393-.91763l-.03096-1.93835c0 .31967-60.60396-7.7637-60.60396-8.08325z" fill="#37617b"/></g></g><g><g><path d="m1.6428 97.55683c-.84781.48949-.86017 1.2917-.01006 1.78573l35.01003 20.3456c.8501.49403 2.23508.48949 3.08289.00001l21.2345-12.25974c.85565-.49401.86015-1.29169.01005-1.78572l-35.01004-20.34561c-.8501-.49403-2.22723-.49402-3.08288-.00002z" fill="#4c7891"/></g></g><g><g><path d="m47.39532 111.77425c-.49456.28554-.49721.7569-.00587 1.04243.49913.29006 1.2973.28101 1.79186-.00452.49454-.28553.50494-.74329.0058-1.03336-.49134-.28553-1.29724-.29007-1.79179-.00455z" fill="#37617b"/></g></g><g><g><path d="m13.34457 91.98612c-.33756.19489-.33928.5031-.00393.69798.33535.19489.86742.19489 1.20499 0 .3297-.19035.33928-.50308.00393-.69797-.33535-.19488-.87529-.19035-1.20499-.00001z" fill="#37617b"/></g></g><g><g><path d="m38.98552 117.04527c-.30615.17676-.29989.45322-.00352.62546.29636.17223.77364.17677 1.0798.00001l1.84478-1.06508c.2983-.17223.29988-.45324.00352-.62547-.29637-.17223-.78149-.17223-1.0798 0z" fill="#37617b"/></g></g><g><g><path d="m54.44236 108.12127c-.29831.17223-.29989.45322-.00352.62546.29636.17223.78148.17223 1.0798 0l1.85262-1.0696c.2983-.17223.29988-.45323.00352-.62546-.29637-.17223-.78149-.17223-1.0798-.00001z" fill="#37617b"/></g></g><g><g><path d="m56.70329 105.09139-20.83267 12.02996-30.8637-17.94262 20.83268-12.02997z" fill="#fff"/></g></g><g><g><g><path d="m5.56192 102.51961c.06449-.03867.15475-.03222.25142.01936l2.59145 1.50201c.19338.10957.34164.37386.34164.59306 0 .10957-.03868.18693-.09667.2256l.13535-.0838c.05803-.03223.09671-.10958.09671-.21915 0-.21919-.14825-.48993-.33522-.59951l-2.59787-1.49556c-.09671-.05804-.18693-.05804-.25142-.02577z" fill="#bac1ce"/></g></g></g><g><g><g><path d="m5.81415 102.54137c-.19344-.11169-.35035-.02227-.35097.19528-.00063.22228.15527.48757.34872.59926l2.59295 1.49703c.18933.10931.3421.02224.34273-.20004.00062-.21755-.15115-.48518-.34048-.59449z" fill="#d4dae8"/></g></g></g><g><g><g><path d="m9.41582 104.83957c.06449-.03867.15475-.03223.25142.01936l2.59145 1.50201c.19338.10958.34164.37386.34164.59306 0 .10958-.03868.18694-.09667.22561l.13535-.0838c.05803-.03223.09671-.10958.09671-.21915 0-.2192-.14825-.48994-.33522-.59951l-2.59787-1.49557c-.09671-.05803-.18693-.05803-.25142-.02576z" fill="#bac1ce"/></g></g></g><g><g><g><path d="m9.66806 104.86133c-.19344-.11169-.35035-.02227-.35097.19528-.00063.22228.15527.48756.34872.59925l2.59295 1.49704c.18933.10931.3421.02224.34273-.20004.00062-.21755-.15115-.48518-.34048-.59449z" fill="#d4dae8"/></g></g></g></g><g><g><path d="m34.1194 112.06483 1.2976.75408 15.13131-8.73607-1.29759-.75408z" fill="#d4dae8"/></g><g><path d="m30.89419 110.19054 1.30522.75851 15.13131-8.73607-1.30521-.7585z" fill="#d4dae8"/></g><g><path d="m15.67729 99.46414c.39777 1.01871 1.26788 1.98447 2.63389 2.77831 3.56665 2.07272 9.23781 2.22708 13.1229.45856l-2.56479-1.49049c-2.45705.97028-5.83659.82034-8.00698-.44096-.73609-.42776-1.25091-.9306-1.53724-1.46859z" fill="#9ad898"/></g><g><path d="m27.66909 108.31631 1.30521.75851 15.13131-8.73607-1.30521-.7585z" fill="#d4dae8"/></g><g><path d="m29.83717 95.58792c2.17039 1.26129 2.41839 3.21923.72781 4.64359l2.56479 1.49049c3.07333-2.24892 2.8177-5.52995-.74895-7.60265-.74369-.43219-1.57147-.78058-2.45315-1.04515l-1.15356 2.01973c.38766.13676.72917.29995 1.06306.49399z" fill="#f9607f"/></g><g><path d="m15.43387 98.08389 3.61723-.16318c.09624-.85563.72526-1.68473 1.84035-2.32852 1.53523-.88637 3.66138-1.22589 5.64722-1.01869l1.13043-1.98015c-3.23324-.43652-6.77625.07062-9.30458 1.53035-1.90196 1.09809-2.87675 2.52245-2.93065 3.96019z" fill="#748bfd"/></g></g><g><g enable-background="new"><g><path d="m87.09443 11.59363-.08498 29.97539-6.38205 3.70884.08499-29.97539z" fill="#cad0dd"/></g><g><path d="m80.71239 15.30247-.08499 29.97539-6.41725-3.705.08499-29.9754z" fill="#d4dae8"/></g><g><path d="m87.09443 11.59363-6.38204 3.70884-6.41725-3.70501 6.38204-3.70883z" fill="#e4e8f4"/></g></g><g><g enable-background="new"><g><path d="m96.51818 23.9369-.08498 23.07293-6.38204 3.70884.08498-23.07293z" fill="#4562ef"/></g><g><path d="m90.13614 27.64574-.08498 23.07293-6.42379-3.70878.08497-23.07293z" fill="#576cfb"/></g><g><path d="m96.51818 23.9369-6.38204 3.70884-6.4238-3.70878 6.38205-3.70884z" fill="#748bfd"/></g></g><g><g enable-background="new"><g><path d="m105.94194 36.28018-.08498 23.07292-6.38205-3.19363.08498-16.17045z" fill="#6eba6e"/></g><g><path d="m99.55989 39.98902-.08498 16.17045-6.42379-3.70877.08498-16.17046z" fill="#75ca75"/></g><g><path d="m105.94194 36.28018-6.38205 3.70884-6.42379-3.70878 6.38204-3.70884z" fill="#9ad898"/></g></g><g><g enable-background="new"><g><path d="m115.35919 48.6197-.08498 9.26799-6.38204 3.70884.08497-9.26799z" fill="#efac41"/></g><g><path d="m108.97714 52.32854-.08497 9.26799-6.42385-3.70881.08499-9.26799z" fill="#f9bb4a"/></g><g><path d="m115.35919 48.6197-6.38205 3.70884-6.42383-3.70881 6.38204-3.70884z" fill="#fed57a"/></g></g><g enable-background="new"><g><path d="m124.7829 57.59399-.08498 5.73448-6.38205 3.70884.08499-5.73448z" fill="#37617b"/></g><g><path d="m118.40086 61.30283-.08499 5.73448-6.42379-3.70878.08498-5.73449z" fill="#416e84"/></g><g><path d="m124.7829 57.59399-6.38204 3.70884-6.4238-3.70879 6.38205-3.70884z" fill="#4c7891"/></g></g></g></g></g></g><g><g enable-background="new"><g><path d="m99.52605 100.70316.02128 2.35572 9.89384 5.74967-.02128-2.35572z" fill="#cad0dd"/></g><g><path d="m109.41989 106.45283.02128 2.35572 19.1874 1.54779-.02129-2.35572z" fill="#bac1ce"/></g><g><path d="m128.63724 110.02204-.02127-2.3557c.00031.11143-.00259.22288-.00868.33427l.0213 2.35573c.00607-.1114.00895-.22285.00865-.3343z" fill="#6eba6e"/></g><g><path d="m99.52605 100.70316 9.89384 5.74967 19.18739 1.54779c.14368-2.62704-1.49377-5.28123-4.95135-7.29056-6.64649-3.86253-17.45164-3.86259-24.12988-.0069z" fill="#e4e8f4"/></g><g><path d="m95.09949 114.69364.02128 2.35572 12.09841-6.98502-.02127-2.35572z" fill="#f34858"/></g><g><path d="m90.13616 107.74806.02129 2.35573c.00712 2.51429 1.65997 5.02588 4.96332 6.94557l-.02128-2.35571c-3.30335-1.9197-4.9562-4.43129-4.96333-6.94559z" fill="#fa5168"/></g><g><path d="m95.16647 100.71672c-6.67822 3.85567-6.71349 10.1144-.06699 13.97692l12.09842-6.98502z" fill="#f9607f"/></g><g><path d="m99.44738 114.68687c6.6465 3.86253 17.45163 3.86255 24.14157.00011 2.2692-1.31013 3.77821-2.89855 4.50259-4.58882l-18.16827-1.45955z" fill="#75ca75"/></g><g><path d="m99.44738 114.68687.02129 2.35574c6.64649 3.8625 17.45162 3.86253 24.14156.00009 2.2692-1.31013 3.77821-2.89855 4.5054-4.60964l-.02127-2.3557c-.7272 1.71107-2.23621 3.29949-4.50541 4.60962-6.68994 3.86244-17.49507 3.86242-24.14157-.00011z" fill="#68af68"/></g></g></g></g></g></svg>