<svg height="512" viewBox="0 0 60 59" width="512" xmlns="http://www.w3.org/2000/svg"><g id="Page-1" fill="none" fill-rule="evenodd"><g id="008---Mathematics-Book" fill-rule="nonzero"><path id="Shape" d="m50.49 26.51c.6682686-.636517.9315057-1.5894312.684733-2.478723-.2467726-.8892919-.9634116-1.5702969-1.8641233-1.7714321-.9007116-.2011352-1.8389736.1103188-2.4406097.8101551l-.45.47c-1.25-.87-4.71-3.46-11.81-4.29-.4174324-.0403135-.8173785.1774789-1.01.55l-3.6 7.2-3.6-7.2c-.1926215-.3725211-.5925676-.5903135-1.01-.55-7.33.84-10.77 3.54-11.93 4.37l-.41-.43c-.4718166-.4958114-1.1255778-.7775427-1.81-.78-.9982567.0017063-1.8998121.5971095-2.29330762 1.514541-.39349551.9174316-.20349545 1.9810138.48330762 2.705459l4.15 4.37 3.44 3.63-.88.78c-.8012375.7132569-1.2830304 1.717998-1.3375367 2.7893271-.0545062 1.0713291.3228261 2.11978 1.0475367 2.9106729l2.98 3.23c.3790282.3732815.5924538.8830212.5924538 1.415s-.2134256 1.0417185-.5924538 1.415l-1.53 1.53-.72-.63c-.3801031-.3348556-.9498969-.3348556-1.33 0l-8.26 7.44c-.61843875.5537357-.83053251 1.4319361-.53298528 2.2068912s1.04287456 1.2855496 1.87298528 1.2831088h13.51c.4943459.0014488.9717128-.1802356 1.34-.51l1.78-1.6c.2132542-.1895988.3344314-.4619209.3325163-.7472652-.0019151-.2853444-.1267365-.5560154-.3425163-.7427348l-.72-.63 1.96-1.91c.564832-.5500007 1.321626-.858457 2.11-.86h1.88c2.9274464.0059571 5.6725948-1.4207732 7.35-3.82 1.1577833-1.6742886 2.4028368-3.2865161 3.73-4.83.1111006-.1258631.2083275-.2633219.29-.41l.02-.03 6.47-6.91c1.0727416-1.1381091 1.0371722-2.9254713-.08-4.02-.504128-.5004379-1.1799394-.7900714-1.89-.81l.16-.17z" fill="#fdd7ad"/><path id="Shape" d="m46.42 23.54-7.08 7.46-1.63 1.71-5.97 6.29h-3.67l-7.6-8-7.01-7.38c1.16-.83 4.6-3.53 11.93-4.37.4174324-.0403135.8173785.1774789 1.01.55l3.6 7.2 3.6-7.2c.1926215-.3725211.5925676-.5903135 1.01-.55 7.1.83 10.56 3.42 11.81 4.29z" fill="#f5efca"/><path id="Shape" d="m30 42c-.388432-.0000504-.7416933-.2250302-.906-.577l-7-15c-.1576822-.3246524-.1281887-.7090822.0771714-1.0058819s.5547181-.4599106.9141145-.4267886.6730585.2573369.8207141.5866705l6.094 13.058 6.094-13.058c.2386764-.4914115.8275519-.7003313 1.3225645-.4692161.4950126.2311151.7129351.8167187.4894355 1.3152161l-7 15c-.1643067.3519698-.517568.5769496-.906.577z" fill="#cbb292"/><path id="Shape" d="m24.96 56.89-1.78 1.6c-.3682872.3297644-.8456541.5114488-1.34.51h-13.51c-.83011072.0024408-1.57543805-.5081537-1.87298528-1.2831088s-.08545347-1.6531555.53298528-2.2068912l8.26-7.44c.3801031-.3348556.9498969-.3348556 1.33 0l.72.63 6.93 6.07.72.63c.2157798.1867194.3406012.4573904.3425163.7427348.0019151.2853443-.1192621.5576664-.3325163.7472652z" fill="#955ba5"/><path id="Shape" d="m20 57c-.2651948-.0000566-.5195073-.1054506-.707-.293l-1.766-1.766c-.3789722-.3923789-.3735524-1.0160848.0121814-1.4018186s1.0094397-.3911536 1.4018186-.0121814l1.766 1.766c.2859079.2859943.3714219.7160366.216678 1.0896546-.1547439.3736179-.5192821.6172591-.923678.6173454z" fill="#3d324c"/><path id="Shape" d="m50.49 26.51-4.26 4.49-.16.17-4.07 4.28v-.95c.0018116-1.0125444-.6073144-1.9261924-1.5426836-2.3139215-.9353692-.3877292-2.0122454-.1729627-2.7273164.5439215l-.02-.02 1.63-1.71 7.08-7.46.45-.47c.6016361-.6998363 1.5398981-1.0112903 2.4406097-.8101551.9007117.2011352 1.6173507.8821402 1.8641233 1.7714321.2467727.8892918-.0164644 1.842206-.684733 2.478723z" fill="#e64c3c"/><path id="Shape" d="m37.73 32.73c-.4685697.4697537-.731185 1.1065057-.73 1.77v6.22l-1.79 1.88c-.7347729.7519861-1.705664 1.2286053-2.75 1.35-.1682185.0314939-.3388679.0482242-.51.05h-4.09c-.1711321-.0017758-.3417815-.0185061-.51-.05-1.0351593-.1186404-1.9985389-.5879792-2.73-1.33l-7.6-7.99-3.44-3.63-4.15-4.37c-.66826863-.636517-.93150572-1.5894312-.68473303-2.478723.24677268-.8892919.96341165-1.5702969 1.86412333-1.7714321.9007116-.2011352 1.8389736.1103188 2.4406097.8101551l.41.43 7.01 7.38 7.6 8h3.67l5.97-6.29z" fill="#e64c3c"/><path id="Shape" d="m48.04 36-6.47 6.91c.2806924-.4573487.4295053-.9833848.43-1.52v-5.94l4.07-4.28c.7100606.0199286 1.385872.3095621 1.89.81 1.1171722 1.0945287 1.1527416 2.8818909.08 4.02z" fill="#f9c795"/><path id="Shape" d="m28 5h-4v-4c0-.55228475-.4477153-1-1-1s-1 .44771525-1 1v4h-4c-.5522847 0-1 .44771525-1 1s.4477153 1 1 1h4v4c0 .5522847.4477153 1 1 1s1-.4477153 1-1v-4h4c.5522847 0 1-.44771525 1-1s-.4477153-1-1-1z" fill="#ff5364"/><path id="Shape" d="m44 5h-10c-.5522847 0-1 .44771525-1 1s.4477153 1 1 1h10c.5522847 0 1-.44771525 1-1s-.4477153-1-1-1z" fill="#3b97d3"/><path id="Shape" d="m55.41 11.964 4.3-4.331c.2516936-.25365857.3489429-.62232569.2551149-.96712804-.093828-.34480234-.3644784-.61335622-.71-.7045-.3455216-.09114377-.7134213.00896947-.9651149.26262804l-4.29 4.321-4.29-4.321c-.3890846-.39212213-1.0223778-.39458455-1.4145-.00549996-.3921221.38908459-.3945846 1.02237778-.0055 1.41449996l4.3 4.331-4.3 4.336c-.3893607.3921222-.3871222 1.0256393.005 1.415s1.0256393.3871222 1.415-.005l4.29-4.326 4.29 4.316c.2518722.2536586.619937.3536765.9655479.262378.3456109-.0912984.6162614-.3600429.71-.705.0937387-.344957-.0036757-.7137194-.2555479-.967378z" fill="#f29c1f"/><circle id="Oval" cx="39" cy="1" fill="#3b97d3" r="1"/><circle id="Oval" cx="39" cy="11" fill="#3b97d3" r="1"/><path id="Shape" d="m12 7c0-.55228475-.4477153-1-1-1h-10c-.4043959.00008635-.76893405.2437275-.92367798.61734544s-.06922994.80366031.21667798 1.08965456l4.293 4.293-4.293 4.293c-.28590792.2859943-.37142191.7160366-.21667798 1.0896546.15474393.3736179.51928208.6172591.92367798.6173454h10c.5522847 0 1-.4477153 1-1s-.4477153-1-1-1h-7.586l3.293-3.293c.39038194-.3904999.39038194-1.0235001 0-1.414l-3.293-3.293h7.586c.5522847 0 1-.44771525 1-1z" fill="#65ddb9"/></g></g></svg>