<svg id="Layer_3" height="512" viewBox="0 0 64 64" width="512" xmlns="http://www.w3.org/2000/svg" data-name="Layer 3"><path d="m54 45.683a12 12 0 0 1 8 11.317v5h-60v-5a12 12 0 0 1 8-11.317" fill="#2d4d83"/><path d="m24.15 37a27.244 27.244 0 0 1 -4.15-14.454v-3.546l6.687-4.458a9.176 9.176 0 0 1 5.093-1.542 9.178 9.178 0 0 0 5.735-2.012l2.485-1.988 2.321 3.481a10 10 0 0 1 1.679 5.547v4.518a27.236 27.236 0 0 1 -4.151 14.454" fill="#fadfb2"/><path d="m21.048 30.028a27.221 27.221 0 0 1 -1.048-7.482v-.546h-1.3a2.7 2.7 0 0 0 -2.7 2.7 2.7 2.7 0 0 0 1.014 2.109l4.034 3.217z" fill="#f5cf88"/><path d="m43 30 3.986-3.189a2.7 2.7 0 0 0 1.014-2.111 2.7 2.7 0 0 0 -2.7-2.7h-1.3v.546a27.219 27.219 0 0 1 -1.037 7.444z" fill="#f5cf88"/><path d="m44 22 2.711-7.455a9.348 9.348 0 0 0 -.243-6.992 9.35 9.35 0 0 0 -8.544-5.553h-8.49a32.9 32.9 0 0 0 -17.434 5l2.411.8a3.567 3.567 0 0 1 2.189 4.713 3.571 3.571 0 0 0 .121 2.92l3.279 6.567v-3l6.687-4.458a9.176 9.176 0 0 1 5.093-1.542 9.178 9.178 0 0 0 5.735-2.012l2.485-1.988 2.321 3.481a10 10 0 0 1 1.679 5.547z" fill="#976947"/><path d="m24 22h6a0 0 0 0 1 0 0v4a2 2 0 0 1 -2 2h-2a2 2 0 0 1 -2-2v-4a0 0 0 0 1 0 0z" fill="#f2f0eb"/><path d="m34 22h6a0 0 0 0 1 0 0v4a2 2 0 0 1 -2 2h-2a2 2 0 0 1 -2-2v-4a0 0 0 0 1 0 0z" fill="#f2f0eb"/><path d="m40 22v2h3.949c.026-.483.051-.966.051-1.453v-.547z" fill="#c1c8d1"/><path d="m20 22.546c0 .487.025.97.051 1.453h3.949v-1.999h-4z" fill="#c1c8d1"/><path d="m30 23h4v2h-4z" fill="#a8b0bc"/><path d="m10 62v-21a4 4 0 0 1 4-4h36a4 4 0 0 1 4 4v21" fill="#d5cec2"/><circle cx="32" cy="54" fill="#e7e4dd" r="3"/><g fill="#c66b60"><path d="m25.292 48.707-4-4a1 1 0 0 1 0-1.415l4-4 1.415 1.415-3.293 3.293 3.293 3.292z"/><path d="m38.707 48.707-1.415-1.415 3.293-3.292-3.293-3.293 1.415-1.415 4 4a1 1 0 0 1 0 1.415z"/><path d="m26.999 42.999h10v2h-10z" transform="matrix(.6 -.8 .8 .6 -22.4 43.207)"/></g></svg>