<svg id="Layer_3" height="512" viewBox="0 0 64 64" width="512" xmlns="http://www.w3.org/2000/svg" data-name="Layer 3"><path d="m58 12v48a2 2 0 0 1 -2 2h-48a2 2 0 0 1 -2-2v-56a2 2 0 0 1 2-2h40z" fill="#ddd"/><path d="m48 2v10h10" fill="#ccc"/><path d="m6 6h20v8h-20" fill="#6bc13b"/><path d="m44 6-9 8h-5l9-8z" fill="#4d8c28"/><path d="m10 18h12v6h-12z" fill="#4d8c28"/><path d="m26 18h12v6h-12z" fill="#559b2d"/><path d="m42 18h12v6h-12z" fill="#6bc13b"/><path d="m10 28h44v30h-44z" fill="#b5b5b5"/><path d="m54 35v-2h-13v-5h-2v5h-14v-5h-2v5h-13v2h13v4h-13v2h13v4h-13v2h13v4h-13v2h13v5h2v-5h14v5h2v-5h13v-2h-13v-4h13v-2h-13v-4h13v-2h-13v-4zm-15 16h-14v-4h14zm0-6h-14v-4h14zm0-6h-14v-4h14z" fill="#ccc"/><path d="m30 6 9 8h5l-9-8z" fill="#6bc13b"/><path d="m9 9h14v2h-14z" fill="#7bdf45"/><path d="m10 18v6h5.3a10.311 10.311 0 0 0 5.2-6z" fill="#559b2d"/><path d="m26 18v6h5.3a10.311 10.311 0 0 0 5.2-6z" fill="#6bc13b"/><path d="m42 18v6h5.3a10.311 10.311 0 0 0 5.2-6z" fill="#7bdf45"/></svg>