<?xml version="1.0" encoding="iso-8859-1"?>
<!-- Generator: Adobe Illustrator 19.0.0, SVG Export Plug-In . SVG Version: 6.00 Build 0)  -->
<svg version="1.1" id="Capa_1" xmlns="http://www.w3.org/2000/svg" xmlns:xlink="http://www.w3.org/1999/xlink" x="0px" y="0px"
	 viewBox="0 0 512 512" style="enable-background:new 0 0 512 512;" xml:space="preserve">
<path style="fill:#EBEDF2;" d="M485.972,423.691H26.03c-12.063,0-21.842-9.779-21.842-21.842V98.8
	c0-12.063,9.779-21.842,21.842-21.842h459.942c12.063,0,21.842,9.779,21.842,21.842v303.049
	C507.815,413.912,498.035,423.691,485.972,423.691z"/>
<rect x="199.54" y="421.15" style="fill:#003666;" width="112.91" height="62.33"/>
<path style="fill:#00173F;" d="M199.545,421.149v18.828h53.458c24.025,0,43.502,19.476,43.502,43.502l0,0h15.952v-62.33H199.545z"/>
<path style="fill:#1952A5;" d="M4.187,329.556v72.293c0,12.063,9.779,21.843,21.842,21.843H485.97
	c12.063,0,21.843-9.779,21.843-21.843v-72.293H4.187z"/>
<circle style="fill:#2AA1F2;" cx="260.211" cy="376.62" r="15.864"/>
<path d="M343.376,50.001H208.77c-4.333,0-7.845-3.512-7.845-7.845s3.512-7.845,7.845-7.845h134.606c4.333,0,7.845,3.512,7.845,7.845
	S347.709,50.001,343.376,50.001z"/>
<path d="M268.713,83.434H208.77c-4.333,0-7.845-3.512-7.845-7.845s3.512-7.845,7.845-7.845h59.943c4.333,0,7.845,3.512,7.845,7.845
	C276.559,79.922,273.047,83.434,268.713,83.434z"/>
<polygon style="fill:#D3D9EF;" points="47.484,76.957 75.042,324.634 434.868,324.634 468.243,76.957 "/>
<path style="fill:#EBEDF2;" d="M434.868,329.556H75.042V15.727C75.042,7.041,82.083,0,90.769,0h328.372
	c8.686,0,15.727,7.041,15.727,15.727V329.556z"/>
<path style="fill:#00CF69;" d="M419.141,0H90.769c-8.686,0-15.727,7.041-15.727,15.727v98.888h359.826V15.727
	C434.868,7.041,427.827,0,419.141,0z"/>
<polygon style="fill:#FBC640;" points="136.157,32.496 110.334,77.222 161.979,77.222 "/>
<path style="fill:#FFFFFF;" d="M331.798,44.408H197.193c-4.333,0-7.845-3.512-7.845-7.845s3.512-7.845,7.845-7.845h134.605
	c4.333,0,7.845,3.512,7.845,7.845S336.131,44.408,331.798,44.408z"/>
<g>
	<path style="fill:#9694AF;" d="M403.905,167.077H290.287c-4.333,0-7.845-3.512-7.845-7.845s3.512-7.845,7.845-7.845h113.617
		c4.333,0,7.845,3.512,7.845,7.845C411.75,163.565,408.238,167.077,403.905,167.077z"/>
	<path style="fill:#9694AF;" d="M403.905,201.58H290.287c-4.333,0-7.845-3.512-7.845-7.845s3.512-7.845,7.845-7.845h113.617
		c4.333,0,7.845,3.512,7.845,7.845S408.238,201.58,403.905,201.58z"/>
	<path style="fill:#9694AF;" d="M403.905,236.083H290.287c-4.333,0-7.845-3.512-7.845-7.845c0-4.333,3.512-7.845,7.845-7.845
		h113.617c4.333,0,7.845,3.512,7.845,7.845C411.75,232.571,408.238,236.083,403.905,236.083z"/>
	<path style="fill:#9694AF;" d="M403.905,270.586H290.287c-4.333,0-7.845-3.512-7.845-7.845s3.512-7.845,7.845-7.845h113.617
		c4.333,0,7.845,3.512,7.845,7.845S408.238,270.586,403.905,270.586z"/>
	<path style="fill:#9694AF;" d="M343.376,305.089h-53.089c-4.333,0-7.845-3.512-7.845-7.845s3.512-7.845,7.845-7.845h53.089
		c4.333,0,7.845,3.512,7.845,7.845S347.709,305.089,343.376,305.089z"/>
</g>
<path style="fill:#FFFFFF;" d="M257.135,77.843h-59.942c-4.333,0-7.845-3.512-7.845-7.845s3.512-7.845,7.845-7.845h59.942
	c4.333,0,7.845,3.512,7.845,7.845S261.468,77.843,257.135,77.843z"/>
<path style="fill:#2AA1F2;" d="M247.256,297.244H118.033c-4.252,0-7.699-3.447-7.699-7.699V160.322c0-4.252,3.447-7.699,7.699-7.699
	h129.223c4.252,0,7.699,3.447,7.699,7.699v129.223C254.954,293.797,251.508,297.244,247.256,297.244z"/>
<path style="fill:#FFAD6A;" d="M254.954,289.545v-36.624c-3.482-1.46-7.281-2.552-11.351-3.008
	c-19.971-2.234-22.649,13.486-42.052,15.06c-28.676,2.326-37.018-30.861-66.901-29.044c-9.706,0.59-17.962,4.647-24.317,9.195
	v44.421c0,4.252,3.447,7.699,7.699,7.699h2.91h123.402h2.91C251.508,297.244,254.954,293.797,254.954,289.545z"/>
<circle style="fill:#FBC640;" cx="203.34" cy="202" r="16.16"/>
<path style="fill:#1952A5;" d="M320.657,481H191.344c-16.147,0-29.261,11.999-31.118,27.27c-0.241,1.985,1.335,3.73,3.335,3.73
	h184.879c2,0,3.576-1.745,3.335-3.73C349.918,492.999,336.805,481,320.657,481z"/>
<path style="fill:#03427A;" d="M320.657,481h-26.23c17.442,0,31.581,14,31.581,31h22.666c2.002,0,3.58-1.749,3.334-3.736
	C350.119,492.996,336.803,481,320.657,481z"/>
<g>
</g>
<g>
</g>
<g>
</g>
<g>
</g>
<g>
</g>
<g>
</g>
<g>
</g>
<g>
</g>
<g>
</g>
<g>
</g>
<g>
</g>
<g>
</g>
<g>
</g>
<g>
</g>
<g>
</g>
</svg>
