<svg id="Layer_1" height="512" viewBox="0 0 512 512" width="512" xmlns="http://www.w3.org/2000/svg"><g><g><g><g><path d="m269.579 120c-4.326 0-8.193-2.676-9.733-6.718-.45-1.18-.933-2.343-1.45-3.489-1.785-3.959-.958-8.604 2.113-11.675l.004-.004c4.07-4.07 4.07-10.668 0-14.738l-7.889-7.889c-2.035-2.035-4.702-3.052-7.369-3.052h-27.335c-1.22-1.721-1.92-3.806-1.92-6.013 0-5.756-4.666-10.422-10.421-10.422h-43.157c-5.756 0-10.422 4.666-10.422 10.422 0 2.207-.7 4.293-1.919 6.013h-27.335c-2.667 0-5.334 1.017-7.369 3.052l-7.889 7.889c-4.07 4.07-4.07 10.668 0 14.738l.004.004c3.071 3.071 3.898 7.716 2.113 11.675-.517 1.145-1 2.309-1.45 3.489-1.541 4.042-5.407 6.718-9.733 6.718-5.756 0-10.422 4.666-10.422 10.422v11.157c0 5.755 4.666 10.421 10.421 10.421 4.325 0 8.192 2.676 9.733 6.718.45 1.18.933 2.343 1.45 3.489 1.785 3.959.958 8.604-2.113 11.675l-.004.004c-4.07 4.07-4.07 10.668 0 14.738l7.889 7.889c2.035 2.035 4.702 3.052 7.369 3.052h27.335c1.219 1.72 1.919 3.806 1.919 6.013 0 5.756 4.666 10.422 10.421 10.422h43.157c5.755 0 10.421-4.666 10.421-10.422 0-2.207.7-4.293 1.919-6.013h27.335c2.667 0 5.334-1.017 7.369-3.052l7.889-7.889c4.07-4.07 4.07-10.668 0-14.738l-.004-.004c-3.071-3.071-3.898-7.716-2.113-11.675.517-1.145 1-2.309 1.45-3.489 1.541-4.042 5.407-6.718 9.733-6.718 5.755 0 10.421-4.666 10.421-10.422v-11.157c.003-5.755-4.663-10.421-10.418-10.421z" fill="#faa019"/></g><g><g><path d="m248 141.578v-11.157c0-5.756-4.666-10.422-10.422-10.422-4.326 0-8.193-2.676-9.733-6.718-.45-1.18-.933-2.343-1.45-3.489-1.785-3.959-.958-8.604 2.113-11.675l.004-.004c4.07-4.07 4.07-10.668 0-14.738l-7.889-7.889c-4.07-4.07-10.668-4.07-14.738 0l-.004.004c-3.071 3.071-7.715 3.898-11.674 2.113-1.145-.516-2.309-1-3.489-1.45-4.042-1.54-6.718-5.407-6.718-9.733 0-5.754-4.666-10.42-10.422-10.42h-11.157c-5.755 0-10.421 4.666-10.421 10.422 0 4.326-2.676 8.193-6.718 9.733-1.18.45-2.343.933-3.489 1.45-3.959 1.785-8.604.958-11.674-2.113l-.004-.004c-4.07-4.07-10.668-4.07-14.738 0l-7.889 7.889c-4.07 4.07-4.07 10.668 0 14.738l.004.004c3.071 3.071 3.898 7.716 2.113 11.675-.516 1.145-1 2.309-1.45 3.489-1.54 4.042-5.407 6.718-9.733 6.718-5.756-.001-10.422 4.665-10.422 10.421v11.157c0 5.755 4.666 10.421 10.422 10.421 4.326 0 8.193 2.676 9.733 6.718.45 1.18.933 2.343 1.45 3.489 1.785 3.959.958 8.604-2.113 11.675l-.004.004c-4.07 4.07-4.07 10.668 0 14.738l7.889 7.889c4.07 4.07 10.668 4.07 14.738 0l.004-.004c3.071-3.071 7.715-3.898 11.674-2.113 1.145.516 2.309 1 3.489 1.45 4.042 1.54 6.718 5.407 6.718 9.733 0 5.756 4.666 10.422 10.422 10.422h11.157c5.756 0 10.422-4.666 10.422-10.422 0-4.326 2.676-8.193 6.718-9.733 1.18-.45 2.343-.933 3.489-1.45 3.959-1.785 8.604-.958 11.674 2.113l.004.004c4.07 4.07 10.668 4.07 14.738 0l7.889-7.889c4.07-4.07 4.07-10.668 0-14.738l-.004-.004c-3.071-3.071-3.898-7.716-2.113-11.675.516-1.145 1-2.309 1.45-3.489 1.54-4.042 5.407-6.718 9.733-6.718 5.755 0 10.421-4.666 10.421-10.422z" fill="#ffcd05"/></g></g><g fill="#2387c3"><path d="m257.539 209.539c-19.643 19.643-45.76 30.461-73.539 30.461-57.346 0-104-46.654-104-104h10.204c3.201 0 5.796-2.595 5.796-5.796 0-1.419-.521-2.79-1.464-3.851l-18.098-20.36c-1.127-1.268-2.742-1.993-4.438-1.993s-3.311.725-4.438 1.993l-18.098 20.36c-.943 1.061-1.464 2.431-1.464 3.851 0 3.201 2.595 5.796 5.796 5.796h10.204c0 66.168 53.832 120 120 120 32.053 0 62.188-12.482 84.853-35.147 3.125-3.124 3.125-8.189 0-11.313-3.124-3.125-8.19-3.125-11.314-.001z"/><path d="m314.204 136h-10.204c0-66.168-53.832-120-120-120-32.053 0-62.188 12.482-84.853 35.147-3.125 3.124-3.125 8.189 0 11.313 3.124 3.124 8.189 3.124 11.313 0 19.644-19.642 45.761-30.46 73.54-30.46 57.346 0 104 46.654 104 104h-10.204c-3.201 0-5.796 2.595-5.796 5.796 0 1.419.521 2.79 1.464 3.851l18.098 20.36c1.127 1.268 2.742 1.993 4.438 1.993s3.311-.725 4.438-1.993l18.098-20.36c.943-1.061 1.464-2.431 1.464-3.851 0-3.201-2.595-5.796-5.796-5.796z"/></g><g><circle cx="168" cy="136" fill="#555a6e" r="48"/></g></g><path d="m196.116 129.14-40-24c-2.472-1.483-5.549-1.521-8.058-.102s-4.058 4.08-4.058 6.962v48c0 2.882 1.55 5.542 4.059 6.961 1.224.693 2.583 1.039 3.941 1.039 1.426 0 2.851-.381 4.116-1.14l40-24c2.409-1.446 3.884-4.05 3.884-6.86s-1.475-5.414-3.884-6.86z" fill="#5ad7ff"/></g><g><g><path d="m184 496h96c4.418 0 8-3.582 8-8v-136h-112v136c0 4.418 3.582 8 8 8z" fill="#555a6e"/></g><g><path d="m192 352h96v136c0 4.418-3.582 8-8 8h-96c4.418 0 8-3.582 8-8z" fill="#463c4b"/></g><g><path d="m496 352h-320c-8.837 0-16-7.163-16-16 0-8.837 7.163-16 16-16h320z" fill="#d7e6f0"/></g><g><path d="m416 352h80v-32h-80c-8.837 0-16 7.163-16 16 0 8.837 7.163 16 16 16z" fill="#a5c3dc"/></g><g><path d="m392 496h96c4.418 0 8-3.582 8-8v-136h-112v136c0 4.418 3.582 8 8 8z" fill="#555a6e"/></g><g><path d="m400 352h96v136c0 4.418-3.582 8-8 8h-96c4.418 0 8-3.582 8-8z" fill="#463c4b"/></g><g><g><g><path d="m128 272v104h80c8.837 0 16 7.163 16 16 0 8.837-7.163 16-16 16h-176c-8.837 0-16-7.163-16-16v-120c0-8.837 7.163-16 16-16h80c8.837 0 16 7.163 16 16z" fill="#5ad7ff"/></g><g><path d="m128 272v104h80c8.837 0 16 7.163 16 16 0 8.837-7.163 16-16 16h-96c-8.837 0-16-7.163-16-16v-120c0-8.837 7.163-16 16-16 8.837 0 16 7.163 16 16z" fill="#23aae6"/></g></g><g><path d="m96 408h32v56h-32z" fill="#463c4b" transform="matrix(-1 0 0 -1 224 872)"/></g><g><path d="m120 448h8v16h-16v-8c0-4.418 3.582-8 8-8z" fill="#555a6e"/></g><g><path d="m88 432h48c4.418 0 8-3.582 8-8v-16h-64v16c0 4.418 3.582 8 8 8z" fill="#463c4b"/></g><g><path d="m64 464h96c8.837 0 16 7.163 16 16 0 8.837-7.163 16-16 16h-96c-8.837 0-16-7.163-16-16 0-8.837 7.163-16 16-16z" fill="#463c4b"/></g><g><circle cx="160" cy="480" fill="#555a6e" r="16"/></g><g><circle cx="160" cy="480" fill="#463c4b" r="8"/></g><g><circle cx="64" cy="480" fill="#555a6e" r="16"/></g><g><circle cx="64" cy="480" fill="#463c4b" r="8"/></g></g><g><path d="m288 352h96v96h-96z" fill="#a5c3dc"/></g><g><path d="m400 320h-112v-88c0-4.418 3.582-8 8-8h112c4.418 0 8 3.582 8 8v72c0 8.837-7.163 16-16 16z" fill="#463c4b"/></g><g><path d="m400 304h-112v-72c0-4.418 3.582-8 8-8h96c4.418 0 8 3.582 8 8z" fill="#555a6e"/></g><g><path d="m380 304h-72c-2.209 0-4-1.791-4-4v-56c0-2.209 1.791-4 4-4h72c2.209 0 4 1.791 4 4v56c0 2.209-1.791 4-4 4z" fill="#faa019"/></g><g><path d="m216 320h184v-16h-184c-4.418 0-8 3.582-8 8 0 4.418 3.582 8 8 8z" fill="#555a6e"/></g><g><path d="m328 320h72v-16h-72c-4.418 0-8 3.582-8 8 0 4.418 3.582 8 8 8z" fill="#463c4b"/></g><g><path d="m492 288h-72c-2.209 0-4-1.791-4-4v-8c0-2.209 1.791-4 4-4h72c2.209 0 4 1.791 4 4v8c0 2.209-1.791 4-4 4z" fill="#5ad7ff"/></g><g><path d="m492 272h-40c2.209 0 4 1.791 4 4v8c0 2.209-1.791 4-4 4h40c2.209 0 4-1.791 4-4v-8c0-2.209-1.791-4-4-4z" fill="#23aae6"/></g><g><path d="m480 320h-48l-8-32h64z" fill="#23aae6"/></g><g><path d="m432 320h24v-24h-30z" fill="#5ad7ff"/></g><g><g><path d="m456 272 20-20c2.561-2.561 6.035-4 9.657-4h1.239c2.415 0 4.73.959 6.438 2.667l-21.334 21.333z" fill="#5faa46"/></g><g><path d="m493.333 250.667c1.707 1.707 2.667 4.023 2.667 6.438v1.239c0 3.622-1.439 7.096-4 9.657-2.561 2.561-6.035 4-9.657 4h-10.343z" fill="#91c83c"/></g><g><path d="m456 272-20-20c-2.561-2.561-6.035-4-9.657-4h-1.239c-2.415 0-4.73.959-6.438 2.667l21.334 21.333z" fill="#5faa46"/></g><g><path d="m418.667 250.667c-1.707 1.707-2.667 4.023-2.667 6.438v1.239c0 3.622 1.439 7.096 4 9.657 2.561 2.561 6.035 4 9.657 4h10.343z" fill="#91c83c"/></g><g><path d="m464 272 2.343-2.343c3.622-3.622 5.657-8.535 5.657-13.657 0-5.122-2.035-10.035-5.657-13.657l-5.791-5.791c-1.207-1.207-2.845-1.886-4.552-1.886v37.334z" fill="#5faa46"/></g><g><path d="m448 272-2.343-2.343c-3.622-3.622-5.657-8.535-5.657-13.657 0-5.122 2.035-10.035 5.657-13.657l5.791-5.791c1.207-1.207 2.845-1.886 4.552-1.886v37.334z" fill="#91c83c"/></g></g><g><path d="m312 278.343v-26.343c0-2.209 1.791-4 4-4h26.343c3.564 0 5.348 4.309 2.828 6.828l-26.343 26.343c-2.519 2.52-6.828.736-6.828-2.828z" fill="#ffcd05"/></g></g></g></svg>