<svg clip-rule="evenodd" fill-rule="evenodd" height="512" stroke-linejoin="round" stroke-miterlimit="2" viewBox="0 0 24 24" width="512" xmlns="http://www.w3.org/2000/svg"><g id="Icon"><path d="m22.75 16v-8c0-.967-.783-1.75-1.75-1.75h-8c-.967 0-1.75.783-1.75 1.75v8c0 .967.783 1.75 1.75 1.75h8c.967 0 1.75-.783 1.75-1.75zm-1.5-8v8c0 .138-.112.25-.25.25h-8c-.138 0-.25-.112-.25-.25v-8c0-.138.112-.25.25-.25h8c.138 0 .25.112.25.25z"/><path d="m16.75 3c0-.966-.784-1.75-1.75-1.75h-6c-.966 0-1.75.784-1.75 1.75v6c0 .966.784 1.75 1.75 1.75h6c.966 0 1.75-.784 1.75-1.75zm-1.5 0v6c0 .138-.112.25-.25.25h-6c-.138 0-.25-.112-.25-.25v-6c0-.138.112-.25.25-.25h6c.138 0 .25.112.25.25z"/><path d="m5.75 12.5v-1c0-.967-.783-1.75-1.75-1.75h-1c-.967 0-1.75.783-1.75 1.75v1c0 .967.783 1.75 1.75 1.75h1c.967 0 1.75-.783 1.75-1.75zm-1.5-1v1c0 .138-.112.25-.25.25h-1c-.138 0-.25-.112-.25-.25v-1c0-.138.112-.25.25-.25h1c.138 0 .25.112.25.25z"/><path d="m16.75 15c0-.966-.784-1.75-1.75-1.75h-6c-.966 0-1.75.784-1.75 1.75v6c0 .966.784 1.75 1.75 1.75h6c.966 0 1.75-.784 1.75-1.75zm-1.5 0v6c0 .138-.112.25-.25.25h-6c-.138 0-.25-.112-.25-.25v-6c0-.138.112-.25.25-.25h6c.138 0 .25.112.25.25z"/></g></svg>