<svg clip-rule="evenodd" fill-rule="evenodd" height="512" stroke-linejoin="round" stroke-miterlimit="2" viewBox="0 0 24 24" width="512" xmlns="http://www.w3.org/2000/svg"><g id="Icon"><path d="m12.232 1.287c-.151-.049-.313-.049-.464 0l-5.878 1.91c-.15.048-.282.144-.375.272l-3.632 5c-.093.128-.144.282-.144.441v6.18c0 .159.051.313.144.441l3.632 5c.093.128.225.224.375.272l5.878 1.91c.151.049.313.049.464 0l5.878-1.91c.15-.048.282-.144.375-.272l3.632-5c.093-.128.144-.282.144-.441v-6.18c0-.159-.051-.313-.144-.441l-3.632-5c-.093-.128-.225-.224-.375-.272l-5.878-1.91zm-.232 1.502 5.414 1.759s3.347 4.606 3.347 4.606v5.692s-3.347 4.606-3.347 4.606-5.414 1.759-5.414 1.759-5.414-1.759-5.414-1.759-3.347-4.606-3.347-4.606v-5.692s3.347-4.606 3.347-4.606z"/></g></svg>