<svg clip-rule="evenodd" fill-rule="evenodd" height="512" stroke-linejoin="round" stroke-miterlimit="2" viewBox="0 0 24 24" width="512" xmlns="http://www.w3.org/2000/svg"><g id="Icon"><path d="m22.603 8.446.007-.009.016-.024.019-.031.006-.009.006-.011.006-.012.006-.01.01-.022.006-.012.009-.022c.023-.056.039-.113.047-.171l.003-.019.004-.036.001-.018.001-.018v-.009-.009-.018l-.001-.018-.002-.036-.002-.019c-.007-.058-.021-.116-.041-.173l-.009-.022-.015-.034-.005-.011-.006-.012-.006-.011-.005-.01-.013-.023-.005-.008-.02-.031-.002-.002-3.994-5.992c-.139-.209-.373-.334-.624-.334h-12c-.251 0-.485.125-.624.334l-4 6c-.173.259-.167.597.013.851l9.952 14c.14.197.367.314.609.315s.47-.116.611-.313zm-1.515-.462-3.489-5.234h-11.198s-3.491 5.236-3.491 5.236 9.045 12.724 9.045 12.724z"/><path d="m22 7.25h-20c-.414 0-.75.336-.75.75s.336.75.75.75h20c.414 0 .75-.336.75-.75s-.336-.75-.75-.75z"/><path d="m17.283 1.779-5.283 17.171s-5.283-17.171-5.283-17.171c-.122-.395-.542-.618-.938-.496-.395.122-.618.542-.496.938l6 19.5c.097.314.388.529.717.529s.62-.215.717-.529l6-19.5c.122-.396-.101-.816-.496-.938-.396-.122-.816.101-.938.496z"/><path d="m8.624 8.416 3.376-5.064s3.376 5.064 3.376 5.064c.23.344.696.438 1.04.208s.438-.696.208-1.04l-4-6c-.139-.209-.373-.334-.624-.334s-.485.125-.624.334l-4 6c-.23.344-.136.81.208 1.04s.81.136 1.04-.208z"/></g></svg>