<svg clip-rule="evenodd" fill-rule="evenodd" height="512" stroke-linejoin="round" stroke-miterlimit="2" viewBox="0 0 24 24" width="512" xmlns="http://www.w3.org/2000/svg"><g id="Icon"><path d="m12.494 1.436c-.283-.248-.705-.248-.988 0 0 0-2.94 2.572-5.292 5.732-1.639 2.203-2.964 4.697-2.964 6.832 0 4.829 3.921 8.75 8.75 8.75s8.75-3.921 8.75-8.75c0-2.135-1.325-4.629-2.964-6.832-2.352-3.16-5.292-5.732-5.292-5.732zm-.494 1.578c.908.845 2.901 2.791 4.582 5.05 1.433 1.925 2.668 4.071 2.668 5.936 0 4.001-3.249 7.25-7.25 7.25s-7.25-3.249-7.25-7.25c0-1.865 1.235-4.011 2.668-5.936 1.681-2.259 3.674-4.204 4.582-5.05z"/></g></svg>