<svg clip-rule="evenodd" fill-rule="evenodd" height="512" stroke-linejoin="round" stroke-miterlimit="2" viewBox="0 0 24 24" width="512" xmlns="http://www.w3.org/2000/svg"><g id="Icon"><path d="m12 3.522c-2.65-2.146-6.552-1.987-9.016.477-2.634 2.634-2.634 6.912 0 9.546 0 0 8.486 8.485 8.486 8.485.293.293.767.293 1.06 0l8.486-8.485c2.634-2.634 2.634-6.912 0-9.546-2.465-2.464-6.367-2.623-9.016-.477zm-7.955 8.962c-2.049-2.049-2.049-5.375 0-7.424s5.376-2.049 7.425 0c.14.14.331.219.53.219l.555-.244c2.051-2.024 5.359-2.016 7.4.025 2.049 2.049 2.049 5.376 0 7.424 0 0-7.955 7.955-7.955 7.955zm7.974-7.252v.001l.009.019z"/></g></svg>