<svg clip-rule="evenodd" fill-rule="evenodd" height="512" stroke-linejoin="round" stroke-miterlimit="2" viewBox="0 0 24 24" width="512" xmlns="http://www.w3.org/2000/svg"><g id="Icon"><path d="m12.375 1.35c-.232-.133-.518-.133-.75 0l-4.949 2.858c-.232.134-.375.381-.375.649v5.714c0 .268.143.516.375.65l4.949 2.857c.232.134.518.134.75 0l4.949-2.857c.232-.134.375-.382.375-.65v-5.714c0-.268-.143-.515-.375-.649l-4.949-2.858zm-.375 1.516 4.199 2.424v4.848s-4.199 2.425-4.199 2.425-4.199-2.425-4.199-2.425v-4.848z"/><path d="m17.324 9.922c-.232-.134-.518-.134-.75 0l-4.949 2.857c-.232.134-.375.382-.375.65v5.714c0 .268.143.515.375.649l4.949 2.858c.232.133.518.133.75 0l4.948-2.858c.232-.134.375-.381.375-.649v-5.714c0-.268-.143-.516-.375-.65zm-.375 1.515 4.198 2.425v4.848s-4.198 2.424-4.198 2.424-4.199-2.424-4.199-2.424v-4.848z"/><path d="m7.426 9.922c-.232-.134-.518-.134-.75 0l-4.948 2.857c-.232.134-.375.382-.375.65v5.714c0 .268.143.515.375.649l4.948 2.858c.232.133.518.133.75 0l4.949-2.858c.232-.134.375-.381.375-.649v-5.714c0-.268-.143-.516-.375-.65zm-.375 1.515 4.199 2.425v4.848s-4.199 2.424-4.199 2.424-4.198-2.424-4.198-2.424v-4.848z"/></g></svg>