<svg clip-rule="evenodd" fill-rule="evenodd" height="512" stroke-linejoin="round" stroke-miterlimit="2" viewBox="0 0 24 24" width="512" xmlns="http://www.w3.org/2000/svg"><g id="Icon"><path d="m12 6.697-4.419-4.42c-.293-.293-.768-.293-1.061 0l-4.243 4.243c-.293.293-.293.768 0 1.061l4.42 4.419s-4.42 4.419-4.42 4.419c-.293.293-.293.768 0 1.061l4.243 4.243c.293.293.768.293 1.061 0l4.419-4.42s4.419 4.42 4.419 4.42c.293.293.768.293 1.061 0l4.243-4.243c.293-.293.293-.768 0-1.061l-4.42-4.419s4.42-4.419 4.42-4.419c.293-.293.293-.768 0-1.061l-4.243-4.243c-.293-.293-.768-.293-1.061 0zm-.53 1.591c.293.293.767.293 1.06 0l4.42-4.42s3.182 3.182 3.182 3.182-4.42 4.42-4.42 4.42c-.293.293-.293.767 0 1.06l4.42 4.42s-3.182 3.182-3.182 3.182-4.42-4.42-4.42-4.42c-.293-.293-.767-.293-1.06 0l-4.42 4.42s-3.182-3.182-3.182-3.182 4.42-4.42 4.42-4.42c.293-.293.293-.767 0-1.06l-4.42-4.42s3.182-3.182 3.182-3.182 4.42 4.42 4.42 4.42z"/></g></svg>