<svg clip-rule="evenodd" fill-rule="evenodd" height="512" stroke-linejoin="round" stroke-miterlimit="2" viewBox="0 0 24 24" width="512" xmlns="http://www.w3.org/2000/svg"><g id="Icon"><path d="m15.75 7.25v-6.25c0-.414-.336-.75-.75-.75h-6c-.414 0-.75.336-.75.75v6.25h-6.25c-.414 0-.75.336-.75.75v6c0 .414.336.75.75.75h6.25v6.25c0 .414.336.75.75.75h6c.414 0 .75-.336.75-.75v-6.25h6.25c.414 0 .75-.336.75-.75v-6c0-.414-.336-.75-.75-.75zm-1.5.75c0 .414.336.75.75.75h6.25v4.5h-6.25c-.414 0-.75.336-.75.75v6.25h-4.5v-6.25c0-.414-.336-.75-.75-.75h-6.25v-4.5h6.25c.414 0 .75-.336.75-.75v-6.25h4.5z"/></g></svg>