<svg clip-rule="evenodd" fill-rule="evenodd" height="512" stroke-linejoin="round" stroke-miterlimit="2" viewBox="0 0 24 24" width="512" xmlns="http://www.w3.org/2000/svg"><g id="Icon"><path d="m12.451 1.393c-.262-.191-.618-.191-.881 0l-2.432 1.767h-3.005c-.325 0-.613.209-.714.518l-.928 2.858s-2.432 1.767-2.432 1.767c-.263.191-.373.53-.272.839l.928 2.858s-.928 2.858-.928 2.858c-.101.309.009.648.272.839l2.432 1.767s.928 2.858.928 2.858c.101.309.389.518.714.518h3.005s2.432 1.767 2.432 1.767c.263.191.619.191.881 0l2.432-1.767h3.005c.325 0 .613-.209.714-.518l.928-2.858s2.432-1.767 2.432-1.767c.263-.191.373-.53.272-.839l-.928-2.858s.928-2.858.928-2.858c.101-.309-.009-.648-.272-.839l-2.432-1.767s-.928-2.858-.928-2.858c-.101-.309-.389-.518-.714-.518h-3.005s-2.432-1.767-2.432-1.767zm-.44 1.534 2.187 1.59c.129.093.283.143.441.143h2.704c.001 0 .836 2.572.836 2.572.049.15.144.282.273.375l2.187 1.589s-.835 2.572-.835 2.572c-.049.151-.049.313 0 .464l.835 2.572s-2.187 1.589-2.187 1.589c-.129.093-.224.225-.273.375l-.835 2.572c-.001 0-2.705 0-2.705 0-.158 0-.312.05-.441.143l-2.187 1.59s-2.188-1.59-2.188-1.59c-.128-.093-.283-.143-.441-.143h-2.704s-.836-2.572-.836-2.572c-.049-.15-.144-.282-.273-.375l-2.187-1.589s.835-2.572.835-2.572c.049-.151.049-.313 0-.464l-.835-2.572s2.187-1.589 2.187-1.589c.129-.093.224-.225.273-.375l.836-2.572h2.704c.158 0 .313-.05.441-.143l2.188-1.59z"/></g></svg>