<svg clip-rule="evenodd" fill-rule="evenodd" height="512" stroke-linejoin="round" stroke-miterlimit="2" viewBox="0 0 24 24" width="512" xmlns="http://www.w3.org/2000/svg"><g id="Icon"><path d="m10.744 2.643-1.938 5.962h-6.269c-.567 0-1.07.365-1.245.905-.175.539.017 1.13.475 1.464l5.072 3.685-1.937 5.962c-.175.54.017 1.131.476 1.464s1.08.333 1.539 0l5.072-3.685 5.072 3.685c.459.333 1.08.333 1.539 0s.651-.924.476-1.464l-1.938-5.962 5.072-3.685c.459-.334.651-.925.476-1.464-.175-.54-.678-.905-1.245-.905h-6.27l-1.937-5.962c-.175-.54-.678-.905-1.245-.905s-1.07.365-1.245.905zm1.245 1.021 1.924 5.923c.101.309.389.518.713.518h6.228l-5.038 3.66c-.263.191-.373.53-.273.839l1.925 5.922-5.038-3.66c-.263-.191-.619-.191-.882 0l-5.038 3.66 1.924-5.922c.101-.309-.009-.648-.272-.839l-5.038-3.66h6.227c.325 0 .613-.209.714-.518z"/></g></svg>